<svg viewBox="0 0 20 20"><path d="M10 0c2.724 0 3.062 0 4.125.06.83.017 1.65.175 2.426.467.668.254 1.272.65 1.77 1.162.508.498.902 1.1 1.153 1.768a7.3 7.3 0 0 1 .467 2.424c.06 1.063.06 1.41.06 4.123 0 2.712-.06 3.06-.06 4.123a7.3 7.3 0 0 1-.467 2.424 5.111 5.111 0 0 1-2.922 2.92 7.312 7.312 0 0 1-2.425.468c-1.063.06-1.41.06-4.125.06-2.714 0-3.062-.06-4.125-.06a7.312 7.312 0 0 1-2.426-.467 4.895 4.895 0 0 1-1.77-1.162 4.877 4.877 0 0 1-1.153-1.768 7.3 7.3 0 0 1-.467-2.424C0 13.055 0 12.708 0 9.995c0-2.712 0-3.04.06-4.123a7.3 7.3 0 0 1 .467-2.424c.25-.667.645-1.27 1.153-1.77.5-.507 1.103-.9 1.77-1.15A7.252 7.252 0 0 1 5.874.06C6.958 0 7.285 0 10 0zm0 1.798h.01c-2.674 0-2.992.06-4.046.06-.626.02-1.245.15-1.83.377-.434.16-.828.414-1.152.746-.337.31-.602.69-.775 1.113a5.517 5.517 0 0 0-.348 1.858c-.06 1.064-.06 1.372-.06 4.045s.06 2.99.06 4.044a5.49 5.49 0 0 0 .347 1.857c.17.434.434.824.775 1.142.31.33.692.587 1.113.754.596.222 1.224.34 1.86.348 1.063.06 1.37.06 4.045.06 2.674 0 2.992-.06 4.046-.06a5.532 5.532 0 0 0 1.86-.348 3.316 3.316 0 0 0 1.897-1.897 5.532 5.532 0 0 0 .338-1.848c.06-1.064.06-1.372.06-4.045s-.06-2.99-.06-4.044a5.476 5.476 0 0 0-.347-1.827 3.1 3.1 0 0 0-.745-1.152 3.12 3.12 0 0 0-1.143-.774 5.523 5.523 0 0 0-1.86-.348c-1.063-.06-1.37-.06-4.045-.06zm0 3.1a5.11 5.11 0 0 1 5.109 5.106 5.11 5.11 0 0 1-10.22.001 5.109 5.109 0 0 1 5.11-5.107zm0 8.415c.878 0 1.72-.348 2.34-.97A3.306 3.306 0 0 0 10 6.695a3.309 3.309 0 1 0 0 6.618zm6.51-8.633a1.192 1.192 0 1 1-2.388 0 1.192 1.192 0 0 1 2.39 0z"/></svg>